<svg width="145" height="19" viewBox="0 0 145 19" fill="none" xmlns="http://www.w3.org/2000/svg">
<path d="M0 14.722L2.12776 13.125C3.19545 14.5851 4.43092 15.3152 5.83417 15.3152C6.50529 15.3152 7.03151 15.1707 7.41283 14.8817C7.79415 14.5775 7.98481 14.1669 7.98481 13.6497C7.98481 13.2239 7.85516 12.8968 7.59586 12.6687C7.33656 12.4253 6.8256 12.1287 6.06296 11.7789L4.43855 11.0488C1.99811 9.96894 0.777889 8.524 0.777889 6.71403C0.777889 5.4364 1.25072 4.40973 2.19639 3.63403C3.14206 2.84311 4.3394 2.44766 5.78841 2.44766C6.91712 2.44766 7.90854 2.70623 8.7627 3.22336C9.61685 3.72529 10.288 4.41734 10.7761 5.29951L8.67118 6.91936C7.89329 5.76341 6.93237 5.18543 5.78841 5.18543C5.23931 5.18543 4.78936 5.31472 4.43855 5.57329C4.08773 5.83185 3.91233 6.18929 3.91233 6.64558C3.91233 7.02583 4.03435 7.33763 4.27839 7.58099C4.53769 7.80914 5.0029 8.07531 5.67402 8.37951L7.38995 9.1324C8.68643 9.71037 9.6321 10.3416 10.227 11.026C10.8218 11.6953 11.1192 12.5318 11.1192 13.5357C11.1192 14.8893 10.6235 15.9844 9.6321 16.821C8.64067 17.6423 7.3747 18.053 5.83417 18.053C4.56819 18.053 3.42424 17.7564 2.40231 17.1632C1.39562 16.57 0.594857 15.7563 0 14.722Z" fill="white"/>
<path d="M12.5285 12.1211C12.4979 10.5089 13.0852 9.11719 14.2901 7.94603C15.4951 6.77487 16.9289 6.2045 18.5914 6.23492C20.254 6.2045 21.6877 6.77487 22.8927 7.94603C24.1129 9.11719 24.7078 10.5089 24.6773 12.1211C24.7078 13.7334 24.1129 15.1327 22.8927 16.3191C21.6725 17.4902 20.2311 18.0606 18.5685 18.0302C16.906 18.0606 15.4722 17.4902 14.2673 16.3191C13.0775 15.1327 12.4979 13.7334 12.5285 12.1211ZM20.6734 14.3342C21.2378 13.7562 21.5199 13.0261 21.5199 12.144C21.5199 11.2618 21.2378 10.5241 20.6734 9.93091C20.1243 9.33773 19.4303 9.04114 18.5914 9.04114C17.7373 9.04114 17.0356 9.33773 16.4865 9.93091C15.9374 10.5089 15.6629 11.2466 15.6629 12.144C15.6629 13.0261 15.9374 13.7562 16.4865 14.3342C17.0356 14.9121 17.7373 15.2011 18.5914 15.2011C19.4303 15.2011 20.1243 14.9121 20.6734 14.3342Z" fill="white"/>
<path d="M25.9905 12.1211C25.9905 10.4785 26.5777 9.08677 27.7522 7.94603C28.9266 6.80529 30.3604 6.23492 32.0534 6.23492C34.2803 6.23492 35.92 7.16272 36.9724 9.01832L34.8218 10.6838C34.0592 9.58869 33.1516 9.04114 32.0992 9.04114C31.2298 9.04114 30.5129 9.33773 29.9486 9.93091C29.3995 10.5089 29.1249 11.239 29.1249 12.1211C29.1249 13.0185 29.3995 13.7638 29.9486 14.357C30.5129 14.935 31.2298 15.224 32.0992 15.224C33.1516 15.224 34.0592 14.684 34.8218 13.6041L36.9724 15.2468C36.4691 16.1289 35.7904 16.821 34.9362 17.3229C34.0973 17.8096 33.1364 18.053 32.0534 18.053C30.3909 18.0834 28.9571 17.513 27.7522 16.3419C26.5472 15.1555 25.96 13.7486 25.9905 12.1211Z" fill="white"/>
<path d="M38.7972 17.7792V6.48588H41.8859V17.7792H38.7972ZM38.3625 2.37921C38.3625 1.83166 38.5532 1.37536 38.9345 1.01032C39.3158 0.645287 39.781 0.462769 40.3301 0.462769C40.8792 0.462769 41.3444 0.645287 41.7258 1.01032C42.1223 1.37536 42.3206 1.83166 42.3206 2.37921C42.3206 2.91156 42.1223 3.36025 41.7258 3.72529C41.3444 4.09032 40.8792 4.27284 40.3301 4.27284C39.781 4.27284 39.3158 4.09032 38.9345 3.72529C38.5532 3.36025 38.3625 2.91156 38.3625 2.37921Z" fill="white"/>
<path d="M53.9788 11.0717V17.7792H51.1418V16.6841C50.2571 17.5967 49.1055 18.053 47.687 18.053C46.4973 18.053 45.544 17.7412 44.8271 17.1176C44.1255 16.494 43.7747 15.6802 43.7747 14.6764C43.7747 13.6573 44.156 12.8588 44.9186 12.2808C45.6965 11.6877 46.7413 11.3911 48.0531 11.3911H50.8901V10.8891C50.8901 10.2503 50.7071 9.76361 50.341 9.42899C49.9902 9.07916 49.4716 8.90425 48.7852 8.90425C48.2209 8.90425 47.7099 9.02593 47.2523 9.26929C46.7947 9.51264 46.3066 9.9081 45.788 10.4557L44.1865 8.56203C45.4982 7.01062 47.1455 6.23492 49.1284 6.23492C50.6232 6.23492 51.8053 6.66079 52.6747 7.51255C53.5441 8.34909 53.9788 9.53546 53.9788 11.0717ZM50.8901 13.5585V13.4216H48.4649C47.4125 13.4216 46.8862 13.8018 46.8862 14.5623C46.8862 14.9426 47.0311 15.2468 47.3209 15.4749C47.626 15.6879 48.0226 15.7943 48.5107 15.7943C49.197 15.7943 49.7614 15.589 50.2037 15.1783C50.6613 14.7524 50.8901 14.2125 50.8901 13.5585Z" fill="white"/>
<path d="M56.4937 17.7792V0.668102H59.5824V17.7792H56.4937Z" fill="white"/>
<path d="M61.667 17.7792V2.72143H66.6089C69.0188 2.69101 71.0017 3.38306 72.5574 4.79758C74.1132 6.19689 74.8759 7.99926 74.8454 10.2047C74.8759 12.3949 74.1056 14.2125 72.5346 15.6574C70.9635 17.1024 68.9883 17.8096 66.6089 17.7792H61.667ZM64.7557 14.9958H66.586C68.1113 14.9958 69.3391 14.5623 70.2695 13.6954C71.1999 12.8132 71.6652 11.6496 71.6652 10.2047C71.6652 8.74454 71.2076 7.5962 70.2924 6.75966C69.3772 5.92311 68.1418 5.50484 66.586 5.50484H64.7557V14.9958Z" fill="white"/>
<path d="M86.2947 11.0717V17.7792H83.4577V16.6841C82.5731 17.5967 81.4215 18.053 80.003 18.053C78.8133 18.053 77.86 17.7412 77.1431 17.1176C76.4415 16.494 76.0907 15.6802 76.0907 14.6764C76.0907 13.6573 76.472 12.8588 77.2346 12.2808C78.0125 11.6877 79.0573 11.3911 80.369 11.3911H83.2061V10.8891C83.2061 10.2503 83.023 9.76361 82.657 9.42899C82.3061 9.07916 81.7876 8.90425 81.1012 8.90425C80.5368 8.90425 80.0259 9.02593 79.5683 9.26929C79.1107 9.51264 78.6226 9.9081 78.104 10.4557L76.5025 8.56203C77.8142 7.01062 79.4615 6.23492 81.4444 6.23492C82.9391 6.23492 84.1212 6.66079 84.9906 7.51255C85.86 8.34909 86.2947 9.53546 86.2947 11.0717ZM83.2061 13.5585V13.4216H80.7809C79.7284 13.4216 79.2022 13.8018 79.2022 14.5623C79.2022 14.9426 79.3471 15.2468 79.6369 15.4749C79.942 15.6879 80.3385 15.7943 80.8266 15.7943C81.513 15.7943 82.0774 15.589 82.5197 15.1783C82.9773 14.7524 83.2061 14.2125 83.2061 13.5585Z" fill="white"/>
<path d="M96.0852 15.2011V17.7792C95.3531 17.9617 94.6438 18.053 93.9574 18.053C92.5084 18.053 91.3874 17.6956 90.5942 16.9807C89.8163 16.2658 89.4274 15.2087 89.4274 13.8094V9.08677H87.6428V6.48588H89.4274V3.63403H92.5161V6.48588H95.7191V9.08677H92.5161V13.5357C92.5161 14.1745 92.6762 14.6308 92.9965 14.9045C93.3321 15.1631 93.8736 15.2924 94.6209 15.2924C94.8802 15.2924 95.3683 15.262 96.0852 15.2011Z" fill="white"/>
<path d="M107.365 11.0717V17.7792H104.528V16.6841C103.643 17.5967 102.492 18.053 101.073 18.053C99.8835 18.053 98.9302 17.7412 98.2133 17.1176C97.5117 16.494 97.1609 15.6802 97.1609 14.6764C97.1609 13.6573 97.5422 12.8588 98.3048 12.2808C99.0827 11.6877 100.128 11.3911 101.439 11.3911H104.276V10.8891C104.276 10.2503 104.093 9.76361 103.727 9.42899C103.376 9.07916 102.858 8.90425 102.171 8.90425C101.607 8.90425 101.096 9.02593 100.638 9.26929C100.181 9.51264 99.6928 9.9081 99.1742 10.4557L97.5727 8.56203C98.8844 7.01062 100.532 6.23492 102.515 6.23492C104.009 6.23492 105.191 6.66079 106.061 7.51255C106.93 8.34909 107.365 9.53546 107.365 11.0717ZM104.276 13.5585V13.4216H101.851C100.799 13.4216 100.272 13.8018 100.272 14.5623C100.272 14.9426 100.417 15.2468 100.707 15.4749C101.012 15.6879 101.409 15.7943 101.897 15.7943C102.583 15.7943 103.148 15.589 103.59 15.1783C104.047 14.7524 104.276 14.2125 104.276 13.5585Z" fill="white"/>
<path d="M109.505 17.7792V2.72143H112.594V14.9958H119.206V17.7792H109.505Z" fill="white"/>
<path d="M130.334 11.0717V17.7792H127.497V16.6841C126.613 17.5967 125.461 18.053 124.043 18.053C122.853 18.053 121.9 17.7412 121.183 17.1176C120.481 16.494 120.13 15.6802 120.13 14.6764C120.13 13.6573 120.512 12.8588 121.274 12.2808C122.052 11.6877 123.097 11.3911 124.409 11.3911H127.246V10.8891C127.246 10.2503 127.063 9.7636 126.697 9.42898C126.346 9.07916 125.827 8.90424 125.141 8.90424C124.576 8.90424 124.065 9.02592 123.608 9.26928C123.15 9.51264 122.662 9.9081 122.144 10.4557L120.542 8.56202C121.854 7.01062 123.501 6.23491 125.484 6.23491C126.979 6.23491 128.161 6.66079 129.03 7.51254C129.9 8.34908 130.334 9.53545 130.334 11.0717ZM127.246 13.5585V13.4216H124.82C123.768 13.4216 123.242 13.8018 123.242 14.5623C123.242 14.9426 123.387 15.2468 123.677 15.4749C123.982 15.6878 124.378 15.7943 124.866 15.7943C125.553 15.7943 126.117 15.589 126.559 15.1783C127.017 14.7524 127.246 14.2125 127.246 13.5585Z" fill="white"/>
<path d="M143.259 7.92321C144.296 9.03353 144.815 10.4404 144.815 12.1439C144.815 13.8475 144.296 15.262 143.259 16.3875C142.222 17.4978 140.91 18.053 139.324 18.053C137.723 18.053 136.51 17.4978 135.686 16.3875V17.7792H132.849V0.668098H135.938V7.58099C136.762 6.6836 137.89 6.23491 139.324 6.23491C140.91 6.23491 142.222 6.79768 143.259 7.92321ZM141.681 12.1211C141.681 11.2085 141.398 10.4633 140.834 9.88528C140.285 9.30731 139.591 9.01832 138.752 9.01832C137.928 9.01832 137.242 9.2997 136.693 9.86247C136.159 10.41 135.892 11.1705 135.892 12.1439C135.892 13.1174 136.159 13.8779 136.693 14.4254C137.242 14.973 137.928 15.2468 138.752 15.2468C139.606 15.2468 140.308 14.9578 140.857 14.3798C141.406 13.8018 141.681 13.0489 141.681 12.1211Z" fill="white"/>
</svg>
